<svg xmlns="http://www.w3.org/2000/svg" xmlns:xlink="http://www.w3.org/1999/xlink" viewBox="0 0 359.35 378.26"><defs><style>.cls-1{isolation:isolate;}.cls-11,.cls-12,.cls-13,.cls-14,.cls-15,.cls-16,.cls-17,.cls-18,.cls-19,.cls-2,.cls-20,.cls-21,.cls-22,.cls-23,.cls-24,.cls-25,.cls-26,.cls-27,.cls-28,.cls-29,.cls-3,.cls-30,.cls-31,.cls-32,.cls-33,.cls-34,.cls-35,.cls-36,.cls-37,.cls-38,.cls-39,.cls-4,.cls-40,.cls-41,.cls-42,.cls-43,.cls-44,.cls-45,.cls-46,.cls-47,.cls-6,.cls-8,.cls-9{fill-rule:evenodd;}.cls-2{fill:url(#_ÂÁ_Ï_ÌÌ_È_ËÂÌÚ_183);}.cls-10,.cls-11,.cls-12,.cls-13,.cls-14,.cls-25,.cls-29,.cls-3,.cls-30,.cls-32,.cls-33,.cls-34,.cls-35,.cls-36,.cls-41,.cls-42,.cls-43,.cls-44,.cls-45,.cls-46,.cls-47,.cls-5,.cls-6,.cls-7,.cls-8,.cls-9{mix-blend-mode:screen;}.cls-3{fill:url(#_ÂÁ_Ï_ÌÌ_È_ËÂÌÚ_600);}.cls-4{fill:url(#_ÂÁ_Ï_ÌÌ_È_ËÂÌÚ_183-2);}.cls-5{fill:url(#_ÂÁ_Ï_ÌÌ_È_ËÂÌÚ_235);}.cls-6{fill:url(#_ÂÁ_Ï_ÌÌ_È_ËÂÌÚ_235-2);}.cls-7{fill:url(#_ÂÁ_Ï_ÌÌ_È_ËÂÌÚ_241);}.cls-8{fill:url(#_ÂÁ_Ï_ÌÌ_È_ËÂÌÚ_235-3);}.cls-9{fill:url(#_ÂÁ_Ï_ÌÌ_È_ËÂÌÚ_235-4);}.cls-10{fill:url(#_ÂÁ_Ï_ÌÌ_È_ËÂÌÚ_239);}.cls-11{fill:url(#_ÂÁ_Ï_ÌÌ_È_ËÂÌÚ_239-2);}.cls-12{fill:url(#_ÂÁ_Ï_ÌÌ_È_ËÂÌÚ_239-3);}.cls-13{fill:url(#_ÂÁ_Ï_ÌÌ_È_ËÂÌÚ_239-4);}.cls-14{fill:url(#_ÂÁ_Ï_ÌÌ_È_ËÂÌÚ_239-5);}.cls-15,.cls-16,.cls-17,.cls-18,.cls-19,.cls-20,.cls-21,.cls-22,.cls-23,.cls-24,.cls-26,.cls-27,.cls-28{mix-blend-mode:multiply;opacity:0.5;}.cls-15{fill:url(#_ÂÁ_Ï_ÌÌ_È_ËÂÌÚ_141);}.cls-16{fill:url(#_ÂÁ_Ï_ÌÌ_È_ËÂÌÚ_247);}.cls-17{fill:url(#_ÂÁ_Ï_ÌÌ_È_ËÂÌÚ_141-2);}.cls-18{fill:url(#_ÂÁ_Ï_ÌÌ_È_ËÂÌÚ_141-3);}.cls-19{fill:url(#_ÂÁ_Ï_ÌÌ_È_ËÂÌÚ_202);}.cls-20{fill:url(#_ÂÁ_Ï_ÌÌ_È_ËÂÌÚ_202-2);}.cls-21{fill:url(#_ÂÁ_Ï_ÌÌ_È_ËÂÌÚ_202-3);}.cls-22{fill:url(#_ÂÁ_Ï_ÌÌ_È_ËÂÌÚ_202-4);}.cls-23{fill:url(#_ÂÁ_Ï_ÌÌ_È_ËÂÌÚ_202-5);}.cls-24{fill:url(#_ÂÁ_Ï_ÌÌ_È_ËÂÌÚ_202-6);}.cls-25{fill:url(#_ÂÁ_Ï_ÌÌ_È_ËÂÌÚ_206);}.cls-26{fill:url(#_ÂÁ_Ï_ÌÌ_È_ËÂÌÚ_202-7);}.cls-27{fill:url(#_ÂÁ_Ï_ÌÌ_È_ËÂÌÚ_202-8);}.cls-28{fill:url(#_ÂÁ_Ï_ÌÌ_È_ËÂÌÚ_202-9);}.cls-29{fill:url(#_ÂÁ_Ï_ÌÌ_È_ËÂÌÚ_233);}.cls-30{fill:url(#_ÂÁ_Ï_ÌÌ_È_ËÂÌÚ_233-2);}.cls-31{fill:#ffffbf;}.cls-32{fill:url(#_ÂÁ_Ï_ÌÌ_È_ËÂÌÚ_260);}.cls-33{fill:url(#_ÂÁ_Ï_ÌÌ_È_ËÂÌÚ_260-2);}.cls-34{fill:url(#_ÂÁ_Ï_ÌÌ_È_ËÂÌÚ_260-3);}.cls-35{fill:url(#_ÂÁ_Ï_ÌÌ_È_ËÂÌÚ_261);}.cls-36{fill:url(#_ÂÁ_Ï_ÌÌ_È_ËÂÌÚ_260-4);}.cls-37{fill:#ffc975;}.cls-38{fill:#ffa475;}.cls-39{fill:#ff93a4;}.cls-40{fill:#ffbbb8;}.cls-41{fill:url(#_ÂÁ_Ï_ÌÌ_È_ËÂÌÚ_260-5);}.cls-42{fill:url(#_ÂÁ_Ï_ÌÌ_È_ËÂÌÚ_260-6);}.cls-43{fill:url(#_ÂÁ_Ï_ÌÌ_È_ËÂÌÚ_260-7);}.cls-44{fill:url(#_ÂÁ_Ï_ÌÌ_È_ËÂÌÚ_260-8);}.cls-45{fill:url(#_ÂÁ_Ï_ÌÌ_È_ËÂÌÚ_262);}.cls-46{fill:url(#_ÂÁ_Ï_ÌÌ_È_ËÂÌÚ_260-9);}.cls-47{fill:url(#_ÂÁ_Ï_ÌÌ_È_ËÂÌÚ_260-10);}</style><radialGradient id="_ÂÁ_Ï_ÌÌ_È_ËÂÌÚ_183" cx="126.47" cy="136.87" r="218.27" gradientUnits="userSpaceOnUse"><stop offset="0.01" stop-color="#fc0"/><stop offset="0.18" stop-color="#fec902"/><stop offset="0.33" stop-color="#fcbe08"/><stop offset="0.48" stop-color="#f8ad13"/><stop offset="0.61" stop-color="#f29422"/><stop offset="0.74" stop-color="#ea7435"/><stop offset="0.82" stop-color="#e55e42"/><stop offset="0.84" stop-color="#e35d49"/><stop offset="0.88" stop-color="#df5a5c"/><stop offset="0.93" stop-color="#d7567c"/><stop offset="0.98" stop-color="#cc4fa7"/><stop offset="1" stop-color="#c74cbd"/></radialGradient><radialGradient id="_ÂÁ_Ï_ÌÌ_È_ËÂÌÚ_600" cx="69.96" cy="85.65" r="202.47" gradientUnits="userSpaceOnUse"><stop offset="0" stop-color="#ffffd9"/><stop offset="1"/></radialGradient><radialGradient id="_ÂÁ_Ï_ÌÌ_È_ËÂÌÚ_183-2" cx="119.83" cy="131.52" r="234.38" xlink:href="#_ÂÁ_Ï_ÌÌ_È_ËÂÌÚ_183"/><radialGradient id="_ÂÁ_Ï_ÌÌ_È_ËÂÌÚ_235" cx="365.44" cy="379.15" r="25.54" gradientTransform="matrix(1.67, 0, 0, 1.33, -421.11, -322.52)" gradientUnits="userSpaceOnUse"><stop offset="0" stop-color="#ffd400"/><stop offset="0.66" stop-color="#584900"/><stop offset="1"/></radialGradient><radialGradient id="_ÂÁ_Ï_ÌÌ_È_ËÂÌÚ_235-2" cx="423.65" cy="386.09" r="16.55" gradientTransform="matrix(1.37, -0.95, 0.76, 1.09, -600.65, 115.51)" xlink:href="#_ÂÁ_Ï_ÌÌ_È_ËÂÌÚ_235"/><radialGradient id="_ÂÁ_Ï_ÌÌ_È_ËÂÌÚ_241" cx="644.39" cy="578.88" r="13.09" gradientTransform="matrix(1.67, 0, 0, 1.33, -750.89, -570.02)" gradientUnits="userSpaceOnUse"><stop offset="0" stop-color="#ff8600"/><stop offset="0.66" stop-color="#582e00"/><stop offset="1"/></radialGradient><radialGradient id="_ÂÁ_Ï_ÌÌ_È_ËÂÌÚ_235-3" cx="379.53" cy="288.3" r="19.09" gradientTransform="matrix(1.37, -0.95, 0.76, 1.09, -600.65, 115.51)" xlink:href="#_ÂÁ_Ï_ÌÌ_È_ËÂÌÚ_235"/><radialGradient id="_ÂÁ_Ï_ÌÌ_È_ËÂÌÚ_235-4" cx="334.07" cy="337.68" r="19.09" gradientTransform="matrix(1.37, -0.95, 0.76, 1.09, -600.65, 115.51)" xlink:href="#_ÂÁ_Ï_ÌÌ_È_ËÂÌÚ_235"/><radialGradient id="_ÂÁ_Ï_ÌÌ_È_ËÂÌÚ_239" cx="344.64" cy="448.59" r="19.09" gradientTransform="matrix(1.67, 0, 0, 1.33, -362.08, -319.3)" gradientUnits="userSpaceOnUse"><stop offset="0.01" stop-color="#ff8300"/><stop offset="0.66" stop-color="#582d00"/><stop offset="1"/></radialGradient><radialGradient id="_ÂÁ_Ï_ÌÌ_È_ËÂÌÚ_239-2" cx="-135.39" cy="911.7" r="19.09" gradientTransform="matrix(1.1, 1.25, -1, 0.88, 1150.52, -388.8)" xlink:href="#_ÂÁ_Ï_ÌÌ_È_ËÂÌÚ_239"/><radialGradient id="_ÂÁ_Ï_ÌÌ_È_ËÂÌÚ_239-3" cx="187.98" cy="1447" r="16.29" gradientTransform="matrix(-0.93, 1.38, -1.1, -0.75, 1919.04, 1095.68)" xlink:href="#_ÂÁ_Ï_ÌÌ_È_ËÂÌÚ_239"/><radialGradient id="_ÂÁ_Ï_ÌÌ_È_ËÂÌÚ_239-4" cx="149.01" cy="1513.88" r="16.29" gradientTransform="matrix(-0.93, 1.38, -1.1, -0.75, 1919.04, 1095.68)" xlink:href="#_ÂÁ_Ï_ÌÌ_È_ËÂÌÚ_239"/><radialGradient id="_ÂÁ_Ï_ÌÌ_È_ËÂÌÚ_239-5" cx="505.56" cy="475.45" r="19.09" gradientTransform="matrix(1.05, -1.3, 1.04, 0.84, -754.28, 485.17)" xlink:href="#_ÂÁ_Ï_ÌÌ_È_ËÂÌÚ_239"/><linearGradient id="_ÂÁ_Ï_ÌÌ_È_ËÂÌÚ_141" x1="155.25" y1="243.54" x2="158.89" y2="243.54" gradientUnits="userSpaceOnUse"><stop offset="0" stop-color="#ca528d"/><stop offset="1" stop-color="#8e7090"/></linearGradient><linearGradient id="_ÂÁ_Ï_ÌÌ_È_ËÂÌÚ_247" x1="38.76" y1="201.8" x2="335.78" y2="201.8" gradientUnits="userSpaceOnUse"><stop offset="0" stop-color="#f4788d"/><stop offset="1" stop-color="#8e7090"/></linearGradient><linearGradient id="_ÂÁ_Ï_ÌÌ_È_ËÂÌÚ_141-2" x1="101.51" y1="232.23" x2="149.9" y2="232.23" xlink:href="#_ÂÁ_Ï_ÌÌ_È_ËÂÌÚ_141"/><linearGradient id="_ÂÁ_Ï_ÌÌ_È_ËÂÌÚ_141-3" x1="104.99" y1="64.96" x2="116.68" y2="64.96" xlink:href="#_ÂÁ_Ï_ÌÌ_È_ËÂÌÚ_141"/><linearGradient id="_ÂÁ_Ï_ÌÌ_È_ËÂÌÚ_202" x1="89.76" y1="115.24" x2="106.69" y2="115.24" gradientUnits="userSpaceOnUse"><stop offset="0" stop-color="#ca528d"/><stop offset="1" stop-color="#b3757c"/></linearGradient><linearGradient id="_ÂÁ_Ï_ÌÌ_È_ËÂÌÚ_202-2" x1="263.23" y1="171.7" x2="322.48" y2="171.7" xlink:href="#_ÂÁ_Ï_ÌÌ_È_ËÂÌÚ_202"/><linearGradient id="_ÂÁ_Ï_ÌÌ_È_ËÂÌÚ_202-3" x1="182.98" y1="292.45" x2="183.08" y2="292.45" xlink:href="#_ÂÁ_Ï_ÌÌ_È_ËÂÌÚ_202"/><linearGradient id="_ÂÁ_Ï_ÌÌ_È_ËÂÌÚ_202-4" x1="258.8" y1="270.23" x2="307.04" y2="270.23" xlink:href="#_ÂÁ_Ï_ÌÌ_È_ËÂÌÚ_202"/><linearGradient id="_ÂÁ_Ï_ÌÌ_È_ËÂÌÚ_202-5" x1="59.79" y1="165.07" x2="89.06" y2="165.07" xlink:href="#_ÂÁ_Ï_ÌÌ_È_ËÂÌÚ_202"/><linearGradient id="_ÂÁ_Ï_ÌÌ_È_ËÂÌÚ_202-6" x1="48.28" y1="220.83" x2="63.52" y2="220.83" xlink:href="#_ÂÁ_Ï_ÌÌ_È_ËÂÌÚ_202"/><linearGradient id="_ÂÁ_Ï_ÌÌ_È_ËÂÌÚ_206" x1="31.32" y1="219.02" x2="31.32" y2="144.17" gradientUnits="userSpaceOnUse"><stop offset="0"/><stop offset="0.08" stop-color="#080502"/><stop offset="0.22" stop-color="#1f1209"/><stop offset="0.38" stop-color="#452813"/><stop offset="0.57" stop-color="#794621"/><stop offset="0.79" stop-color="#bb6c33"/><stop offset="0.98" stop-color="#ff9346"/></linearGradient><linearGradient id="_ÂÁ_Ï_ÌÌ_È_ËÂÌÚ_202-7" x1="120.99" y1="154.88" x2="247.41" y2="154.88" xlink:href="#_ÂÁ_Ï_ÌÌ_È_ËÂÌÚ_202"/><linearGradient id="_ÂÁ_Ï_ÌÌ_È_ËÂÌÚ_202-8" x1="111.37" y1="294.66" x2="263.23" y2="294.66" xlink:href="#_ÂÁ_Ï_ÌÌ_È_ËÂÌÚ_202"/><linearGradient id="_ÂÁ_Ï_ÌÌ_È_ËÂÌÚ_202-9" x1="265.56" y1="96.34" x2="306.45" y2="96.34" xlink:href="#_ÂÁ_Ï_ÌÌ_È_ËÂÌÚ_202"/><linearGradient id="_ÂÁ_Ï_ÌÌ_È_ËÂÌÚ_233" x1="15" y1="164.99" x2="107.46" y2="164.99" gradientUnits="userSpaceOnUse"><stop offset="0" stop-color="#514579"/><stop offset="0.11" stop-color="#594d7f"/><stop offset="0.27" stop-color="#6e6490"/><stop offset="0.48" stop-color="#918aab"/><stop offset="0.72" stop-color="#c2bed0"/><stop offset="0.98" stop-color="#fff"/></linearGradient><linearGradient id="_ÂÁ_Ï_ÌÌ_È_ËÂÌÚ_233-2" x1="109.28" y1="46.09" x2="224.22" y2="46.09" xlink:href="#_ÂÁ_Ï_ÌÌ_È_ËÂÌÚ_233"/><linearGradient id="_ÂÁ_Ï_ÌÌ_È_ËÂÌÚ_260" x1="207.32" y1="91.62" x2="259.95" y2="91.62" gradientUnits="userSpaceOnUse"><stop offset="0" stop-color="#ff8b4a"/><stop offset="1"/></linearGradient><linearGradient id="_ÂÁ_Ï_ÌÌ_È_ËÂÌÚ_260-2" x1="153.9" y1="217.6" x2="251.22" y2="217.6" xlink:href="#_ÂÁ_Ï_ÌÌ_È_ËÂÌÚ_260"/><linearGradient id="_ÂÁ_Ï_ÌÌ_È_ËÂÌÚ_260-3" x1="74.42" y1="307.5" x2="159.73" y2="307.5" xlink:href="#_ÂÁ_Ï_ÌÌ_È_ËÂÌÚ_260"/><linearGradient id="_ÂÁ_Ï_ÌÌ_È_ËÂÌÚ_261" x1="199.12" y1="291.73" x2="258.59" y2="291.73" xlink:href="#_ÂÁ_Ï_ÌÌ_È_ËÂÌÚ_260"/><linearGradient id="_ÂÁ_Ï_ÌÌ_È_ËÂÌÚ_260-4" x1="268.33" y1="252.79" x2="304.09" y2="252.79" xlink:href="#_ÂÁ_Ï_ÌÌ_È_ËÂÌÚ_260"/><linearGradient id="_ÂÁ_Ï_ÌÌ_È_ËÂÌÚ_260-5" x1="254.6" y1="167.52" x2="320.31" y2="167.52" xlink:href="#_ÂÁ_Ï_ÌÌ_È_ËÂÌÚ_260"/><linearGradient id="_ÂÁ_Ï_ÌÌ_È_ËÂÌÚ_260-6" x1="120.99" y1="232.17" x2="120.99" y2="185.14" xlink:href="#_ÂÁ_Ï_ÌÌ_È_ËÂÌÚ_260"/><linearGradient id="_ÂÁ_Ï_ÌÌ_È_ËÂÌÚ_260-7" x1="151.07" y1="124.84" x2="151.07" y2="94.99" xlink:href="#_ÂÁ_Ï_ÌÌ_È_ËÂÌÚ_260"/><linearGradient id="_ÂÁ_Ï_ÌÌ_È_ËÂÌÚ_260-8" x1="276.78" y1="97.9" x2="314.13" y2="97.9" xlink:href="#_ÂÁ_Ï_ÌÌ_È_ËÂÌÚ_260"/><linearGradient id="_ÂÁ_Ï_ÌÌ_È_ËÂÌÚ_262" x1="310.44" y1="237.52" x2="339.69" y2="237.52" gradientUnits="userSpaceOnUse"><stop offset="0"/><stop offset="1" stop-color="#ff8b4a"/></linearGradient><linearGradient id="_ÂÁ_Ï_ÌÌ_È_ËÂÌÚ_260-9" x1="143.75" y1="340.61" x2="211.58" y2="340.61" xlink:href="#_ÂÁ_Ï_ÌÌ_È_ËÂÌÚ_260"/><linearGradient id="_ÂÁ_Ï_ÌÌ_È_ËÂÌÚ_260-10" x1="239.52" y1="316.16" x2="289.86" y2="316.16" xlink:href="#_ÂÁ_Ï_ÌÌ_È_ËÂÌÚ_260"/></defs><g class="cls-1"><g id="planets"><path class="cls-2" d="M336.19,190.35A153.71,153.71,0,0,1,182.37,344.17a158,158,0,0,1-20.18-1.3A153.81,153.81,0,0,1,31.85,222.24a.28.28,0,0,1,0-.14,155.08,155.08,0,0,1-3.28-31.75A153.83,153.83,0,0,1,182.37,36.53c3.36,0,6.67.11,10,.32a152.41,152.41,0,0,1,49.53,11.63c2.69,1.13,5.33,2.33,7.95,3.61a154,154,0,0,1,86.37,138.26Z"/><path class="cls-3" d="M91.15,310.49A154.43,154.43,0,0,1,52.59,262a152,152,0,0,1-13.2-37.54s0-.08,0-.14a155.08,155.08,0,0,1-3.28-31.75A153.83,153.83,0,0,1,189.9,38.76c3.36,0,6.67.11,10,.32a153.75,153.75,0,0,1,30.32,5,152.68,152.68,0,0,0-37.86-7.27c-3.3-.21-6.61-.32-10-.32A153.76,153.76,0,0,0,28.55,190.35a155.08,155.08,0,0,0,3.28,31.75.28.28,0,0,0,0,.14,152.57,152.57,0,0,0,13.21,37.54,154.42,154.42,0,0,0,97.13,79.07A153.33,153.33,0,0,1,91.15,310.49Z"/><path class="cls-4" d="M317.4,264l-25.23,34c-21.68,46.14-70.87,41.14-70.87,41.14l-6.43,1.52c-52,36.17-96.53-8.67-96.53-8.67l-11.43-7.66c-26.85,2.18-33.83-25.81-33.83-25.81L56,278l-.33-.33c-80.26-73.44-16.88-142.5-16.88-142.5L44,123.11c4.38-36.53,38.6-49.81,38.6-49.81,7.34-13.83,17.57-19.06,24.87-21a29.47,29.47,0,0,1,9.22-1.14C155.74,14.37,196,20.61,224.22,33.5c0,0,.06,0,.06,0a143.59,143.59,0,0,1,37.63,25.16c60.66-5.13,53.16,53.84,53.16,53.84,17.85,28.18,20.71,66.78,20.71,66.78C362.76,227.79,317.4,264,317.4,264Z"/><ellipse class="cls-5" cx="188.05" cy="182.96" rx="42.57" ry="34.05" transform="translate(-70.78 140.04) rotate(-34.8)"/><path class="cls-6" d="M295.68,119.44c6.95,10,2.45,25.17-10.06,33.86s-28.29,7.63-35.24-2.38-2.45-25.16,10.06-33.86S288.73,109.43,295.68,119.44Z"/><ellipse class="cls-7" cx="323.19" cy="201.8" rx="21.82" ry="17.45" transform="translate(16.56 427.96) rotate(-68.39)"/><path class="cls-8" d="M164.35,51.93c8,11.55,2.82,29-11.61,39.07s-32.64,8.8-40.66-2.74-2.83-29,11.61-39.07S156.32,40.39,164.35,51.93Z"/><path class="cls-9" d="M139.69,149.24c8,11.55,2.83,29-11.6,39.07s-32.64,8.8-40.66-2.75-2.83-29,11.6-39.06S131.67,137.7,139.69,149.24Z"/><ellipse class="cls-10" cx="212.42" cy="278.78" rx="31.82" ry="25.45" transform="translate(-121.1 171.08) rotate(-34.8)"/><path class="cls-11" d="M108.37,266.21c-10.57,9.26-28.53,6.05-40.11-7.17s-12.4-31.45-1.82-40.71,28.53-6.05,40.11,7.17S119,257,108.37,266.21Z"/><path class="cls-12" d="M129.79,297.94c-9.94-6.71-11.19-22.23-2.8-34.66s23.26-17.06,33.2-10.34,11.19,22.23,2.8,34.66S139.73,304.66,129.79,297.94Z"/><path class="cls-13" d="M92.26,194.2c-9.94-6.72-11.19-22.23-2.8-34.66s23.26-17.06,33.2-10.34,11.19,22.23,2.8,34.65S102.2,200.91,92.26,194.2Z"/><path class="cls-14" d="M288.32,203c10.94,8.83,10.85,27.08-.19,40.75s-28.86,17.6-39.8,8.77-10.85-27.08.19-40.75S277.38,194.21,288.32,203Z"/><path class="cls-15" d="M155.25,242.27a14.65,14.65,0,0,1,3.64,2.53A41.29,41.29,0,0,1,155.25,242.27Z"/><path class="cls-16" d="M317.4,264s-6.65,17.89-25.23,34c0,0-17.59-9.06-32.37.36s-38.5,40.78-38.5,40.78l-6.43,1.52s-6.33-11.56-18.28-18.24h0a29.27,29.27,0,0,0-4.61-2.21,34,34,0,0,0-17-2.11C149.09,321.39,118.34,332,118.34,332l-11.43-7.66s21.27,6.43,46.69-13.08c23.44-18,19-54.52,5.29-66.5,5.39,3.35,16.11,8.77,28.38,8,17.21-1.1,47.69-20.2,56.72-33.41-2.08,3.6-19.64,32.66-42.4,46.07,0,0-14.74,9.77-18.51,26.85a1.76,1.76,0,0,0-.1.3c0,.06,0,.13,0,.22a2.42,2.42,0,0,0-.1.62,22.72,22.72,0,0,0-.48,3,16,16,0,0,0,.09,4.35c2.47,15.61,29.13,17.08,47.73,10.52,16.4-5.78,25.68-23,28.61-29.22.68-1.47,1-2.34,1-2.34s17.7,4.15,36.11-3.09c6.75-2.66,10.19-12.2,11-23.86,1.49-20.1-4.87-46.46-15.52-53.87-13.71-9.51-36.43,9.84-44.36,17.31,5.33-5.62,16.43-18.28,17.7-28.54,1.65-13.54-42.35-58.38-85.07-43-44.36,16-31.82,75-27.11,88.72-3.51-9.74-13.95-40-13.34-56.53.82-21.94,6.38-36.2,6.38-36.2s-38.76-10-58,17,7.79,59.84,7.79,59.84-19.29-16.65-25-24.32c0,0-20.36,55.79,2.73,105.3L56,278s1.65-16.5,2.46-50.56-19.67-92.27-19.67-92.27L44,123.11s7.07,49.64,14.87,56.69S90.64,152,95.71,132.27c8.54-33.38-13.12-59-13.12-59s22.4,14.32,28.25,51c0,0,28.86,6.52,71.53,5.71s73.34-17.43,73.34-17.43-9,16.18-17.48,24c0,0,16.25,40.73,41.28,50.24s46.33-29.9,42.63-46.07S298,95.32,257.79,111.13c.52-.91,10.33-17.63,7.37-34.74-3.05-17.6-1.23-13-1.23-13a71.72,71.72,0,0,0,14.74,29c11.49,13.21,36.4,20.07,36.4,20.07s19.18,32.95,20.71,66.78c0,0-25.94.59-29.61,13.7S317.4,264,317.4,264Z"/><path class="cls-17" d="M101.51,222.67S118.32,250,149.9,239.32C149.9,239.32,124.06,236.34,101.51,222.67Z"/><path class="cls-18" d="M116.68,51.16s-8.3,13.9-9.23,27.74c0,0-5.53-15.39,0-26.61A20.73,20.73,0,0,1,116.68,51.16Z"/><path class="cls-19" d="M90.67,150.32s21.22-33.22-.91-70.16c0,0,16.57,27,16.93,41.56C107,135.92,90.67,150.32,90.67,150.32Z"/><path class="cls-20" d="M263.23,177.17s17.09,22.54,33.09,19,25.06-32.69,26.16-49.4c0,0-10.67,41.09-30.4,43.54C274.09,192.59,263.23,177.17,263.23,177.17Z"/><path class="cls-21" d="M183.08,292.3a1.76,1.76,0,0,0-.1.3c0-.2.07-.3.07-.3Z"/><path class="cls-22" d="M292.86,285.48c-16.27,6.43-34.06-3.4-34.06-3.4.68-1.47,1-2.34,1-2.34s17.7,4.15,36.11-3.09c6.75-2.66,10.19-12.2,11-23.86h0S309.12,279,292.86,285.48Z"/><path class="cls-23" d="M59.79,180.4s7.7,4.09,15.06-3.84,14.21-27.88,14.21-27.88S76.28,177,59.79,180.4Z"/><path class="cls-24" d="M48.28,166.21S60,193,63,209s-6.77,66.42-6.77,66.42,3.43-39,1.43-64.89S48.28,166.21,48.28,166.21Z"/><path class="cls-25" d="M17.6,219s12.66-25.35,29.11-39.21c0,0,1.36-23.59-11.09-35.64C35.62,144.17,9,166.89,17.6,219Z"/><path class="cls-26" d="M121,130.27s25.37,6,32.32,13.41c0,0-11,13.4-8.33,44.36,0,0,3.08-32.44,25.22-43.87s64,.64,77.21,14.71c0,0-18.66-21-18.35-24.51s16.57-12.65,16.57-12.65S218.79,133,187.27,134.89C158.89,136.63,121,130.27,121,130.27Z"/><path class="cls-27" d="M168.36,252.79S179,269.86,177,281c-3.39,18.84-17.9,31.13-29.18,36.47s-36.48,9.89-36.48,9.89l3.88,3s31.17-10.66,47.37-13.94,48.8,5.54,54.13,24l4.55-1.27a115.38,115.38,0,0,1,16.78-25.59,152.58,152.58,0,0,1,25.15-22.76s-10,5.12-24.33,18-13,18.26-31.78,13.95-32.4-14.36-33-19.69,7.18-26.18,16-34.93,23.58-19.36,23.58-19.36-16.82,13.89-28.3,13.48A21.75,21.75,0,0,1,168.36,252.79Z"/><path class="cls-28" d="M265.56,104s23.55-3.91,40.89,8.5c0,0-32.69-12.74-39.25-32.36C267.2,80.16,272.1,94.18,265.56,104Z"/><path class="cls-29" d="M107.46,52.3c-8.31,4.12-21,26.46-21,26.46s-15,6.3-24.83,19.51-14.87,37.89-14.87,37.89l-5,8s-27.17,32.54-20.81,68.74c6,33.93,31.53,61.46,34.71,64.77-80.26-73.44-16.88-142.5-16.88-142.5L44,123.11c4.38-36.53,38.6-49.81,38.6-49.81C89.93,59.47,100.16,54.24,107.46,52.3Z"/><path class="cls-30" d="M224.22,33.5C163.73,7.13,109.28,68.72,109.28,68.72c1.33-6,7.4-17.56,7.4-17.56C155.74,14.37,196,20.61,224.22,33.5Z"/><path class="cls-31" d="M131.91,57.15c5.12,4,24.69-4.64,29.81-13.56s1.6-11.2,1.6-11.2S150.51,34,141.55,40,129.67,55.42,131.91,57.15Z"/><path class="cls-32" d="M207.32,120.35s16.16-.6,33.63-18.31c14.72-14.93,15.59-39.16,15.59-39.16s8.85,19.94-1.94,39.16S207.32,120.35,207.32,120.35Z"/><path class="cls-33" d="M153.9,236.34s21.23,11.35,52-5,42.37-35.56,45.33-46.87A65.21,65.21,0,0,1,236,222.67c-15.14,18-36.91,30.12-53.29,27.72C167.69,248.19,153.9,236.34,153.9,236.34Z"/><path class="cls-34" d="M74.42,294.79s5,21.33,36.42,21.37,48.89-23.86,48.89-23.86-12.29,29.4-43.27,30.35S77.7,307.13,74.42,294.79Z"/><path class="cls-35" d="M199.12,307.28s23.48,7.51,40.29-9.23,19.18-26.71,19.18-26.71-8.24,29.87-28.39,38.2C213.53,316.43,199.12,307.28,199.12,307.28Z"/><path class="cls-36" d="M268.33,276.89s10.35.75,22.66-16.88,10.66-32.52,10.66-32.52,7.46,29.81-3.69,42.36S268.33,276.89,268.33,276.89Z"/><path class="cls-31" d="M128.37,60.05c-4.15-5.24-10.91,4.93-7.2,8.91S130.42,62.62,128.37,60.05Z"/><path class="cls-31" d="M182.37,154.88c-5.05-7.22-24.22,11.41-27.12,23.55s19.74,7.73,24.42,3.16S186.08,160.2,182.37,154.88Z"/><path class="cls-37" d="M271.94,209.65c-2.57-3.67-13.92,3.38-13.79,12,.1,6.34,10,3.93,12.42,1.61S273.83,212.36,271.94,209.65Z"/><path class="cls-31" d="M264.53,120.93c-2.56-3.67-13.91,3.38-13.78,12,.09,6.34,10,3.94,12.41,1.61S266.42,123.63,264.53,120.93Z"/><path class="cls-31" d="M272.65,63.8c-1.74,0-1.89,5.23.92,7,2.08,1.33,3.43-2.41,3.18-3.68S273.93,63.77,272.65,63.8Z"/><path class="cls-31" d="M64.22,97.72c-1.57-1.82-7.24,2.57-6.7,7.14.4,3.39,5.57,1.56,6.72.18S65.38,99.06,64.22,97.72Z"/><path class="cls-31" d="M96.07,158.26c-1.25-1.78-6.75,1.64-6.69,5.81.05,3.08,4.87,1.91,6,.78S97,159.57,96.07,158.26Z"/><path class="cls-31" d="M74.67,229.12c-2.36-1.53-7.3,5.23-5.2,10.2,1.55,3.66,6.77-.07,7.59-2A6.43,6.43,0,0,0,74.67,229.12Z"/><path class="cls-31" d="M27.65,182.63c-3.13-2-9.65,7-6.84,13.57,2.08,4.86,9-.14,10.07-2.68S30,184.12,27.65,182.63Z"/><path class="cls-37" d="M198.61,277.32c-1.27-1.81-6.87,1.67-6.81,5.91,0,3.13,5,1.94,6.14.8S199.55,278.65,198.61,277.32Z"/><path class="cls-31" d="M153.92,196.91c-2.3,1.83-1.68,6.58-.48,8.19s4.57-2.42,4.7-4.09S155.21,195.89,153.92,196.91Z"/><path class="cls-38" d="M144.15,327.88c-2.63-1.33-6.68,1.22-7.64,3s2.56,3.57,5.69,2.55S145.61,328.62,144.15,327.88Z"/><path class="cls-39" d="M252.83,307.5c-4.14.06-9.33,6.05-10.25,9s4.62,2.86,8.88-.55S255.13,307.46,252.83,307.5Z"/><path class="cls-40" d="M320.23,191.26c-2.87-.43-5.8,3.21-6.1,5.16s3.54,2.56,6.12.64S321.84,191.5,320.23,191.26Z"/><path class="cls-31" d="M142.17,249.7c-5.24-.79-10.57,5.84-11.13,9.41s6.46,4.66,11.15,1.15S145.09,250.14,142.17,249.7Z"/><path class="cls-41" d="M254.6,157.78s13.49,21.57,38.25,16.79,27.46-25.89,27.46-25.89-7.94,39.69-32.86,37.6S254.6,157.78,254.6,157.78Z"/><path class="cls-42" d="M102.87,216.38s16.9,9.29,25.69,1.66,4.66-32.9,4.66-32.9,10.19,40.4,3.76,46.1C130.82,236.7,102.87,216.38,102.87,216.38Z"/><path class="cls-43" d="M106.69,95s5.22,12.19,32.42,20.25,56.35,6.46,56.35,6.46-49.71,7-69.75.13S106.69,95,106.69,95Z"/><path class="cls-44" d="M276.78,87s13.39,10.54,23.85,13.24,13.48-3,13.48-3,.58,10.89-3.95,11.44S287.85,100.41,276.78,87Z"/><path class="cls-45" d="M310.44,219s6.09,22.12,12.75,24.52,16.5-16,16.5-16S334.16,248,320.31,256C320.31,256,313.64,247.57,310.44,219Z"/><path class="cls-46" d="M143.75,345.59a83.91,83.91,0,0,0,34.91,6.92c19.07-.62,32.92-12.05,32.92-12.05s-2.5-7.64-9-11.79c0,0,0,10.18-10.76,16.3C181.49,350.85,157.23,349.83,143.75,345.59Z"/><path class="cls-47" d="M281.35,295.76s-3,16.2-14.25,26.3-27.58,14.51-27.58,14.51,14-1.13,30.65-12.82,19.69-25.22,19.69-25.22Z"/></g></g></svg>