<?xml version="1.0" encoding="utf-8"?>
<!-- Generator: Adobe Illustrator 26.0.0, SVG Export Plug-In . SVG Version: 6.00 Build 0)  -->
<svg version="1.1" id="OBJECTS" xmlns="http://www.w3.org/2000/svg" xmlns:xlink="http://www.w3.org/1999/xlink" x="0px" y="0px"
	 viewBox="0 0 244.7 387.3" style="enable-background:new 0 0 244.7 387.3;" xml:space="preserve">
<style type="text/css">
	.st0{fill:url(#SVGID_1_);}
	.st1{fill:url(#SVGID_00000139275897179408924200000017629618019634348945_);}
	.st2{fill:url(#SVGID_00000107547187180273101290000006620296675480332434_);}
	.st3{fill:url(#SVGID_00000100381304041933073190000016976168252868535722_);}
	.st4{fill:url(#SVGID_00000023251580292159192250000014390049043406299567_);}
	.st5{fill:url(#SVGID_00000182501145109130573950000004643111411637682566_);}
	.st6{fill:url(#SVGID_00000139279390994024108080000017515485630936180617_);}
	.st7{fill:url(#SVGID_00000159465299357857702980000001784623149702333087_);}
	.st8{fill:url(#SVGID_00000039850978048953170920000014155346836313646526_);}
	.st9{fill:#DBD8EB;}
	.st10{fill:url(#SVGID_00000127766369283991615890000012645510662877539248_);}
	.st11{fill:url(#SVGID_00000165225481081926151200000012276642885572474272_);}
	.st12{fill:url(#SVGID_00000148623433256939071910000002148368653983323526_);}
	.st13{fill:url(#SVGID_00000053520895730230450740000007500763933758665103_);}
	.st14{fill:url(#SVGID_00000155828076872061135710000013662249785734863800_);}
	.st15{fill:url(#SVGID_00000136393610741248356230000017918719953162623886_);}
	.st16{fill:url(#SVGID_00000138560390548110931930000002881559765073022607_);}
	.st17{fill:url(#SVGID_00000154386139647851936940000013967809416484270979_);}
	.st18{fill:url(#SVGID_00000039856453266379365230000003530796755546486169_);}
	.st19{fill:url(#SVGID_00000168805401391843101960000009260613145180593797_);}
	.st20{fill:url(#SVGID_00000057108290663059678220000000041567252374616981_);}
	.st21{fill:#FFFFFF;}
	.st22{fill:url(#SVGID_00000047055338852315835720000005506114846439066291_);}
	.st23{fill:url(#SVGID_00000012454539497767795340000007671207383928731522_);}
	.st24{fill:#2F2854;}
	.st25{fill:url(#SVGID_00000124149546145219337720000003533002200285441421_);}
	.st26{fill:#37305C;}
	.st27{fill:url(#SVGID_00000076575549109950738690000000828197353205958273_);}
	.st28{fill:url(#SVGID_00000121966759877681408650000012673932342239038128_);}
	.st29{fill:url(#SVGID_00000011015572101485039850000013436391498731320750_);}
	.st30{fill:url(#SVGID_00000052070986106263343180000011792600138568598707_);}
	.st31{fill:url(#SVGID_00000011006332633924559780000001721026790842850176_);}
	.st32{fill:url(#SVGID_00000111902742417875933580000000649449236365806244_);}
	.st33{fill:url(#SVGID_00000156575848261720197470000016935801454969122743_);}
	.st34{fill:url(#SVGID_00000132779490749628744430000012133278992219061169_);}
	.st35{fill:#CFCAE6;}
	.st36{opacity:0.5;fill:#FFFFFF;}
</style>
<g>
	<linearGradient id="SVGID_1_" gradientUnits="userSpaceOnUse" x1="140.3883" y1="292.2195" x2="140.3883" y2="358.3616">
		<stop  offset="0" style="stop-color:#F2D200"/>
		<stop  offset="1" style="stop-color:#F27900"/>
	</linearGradient>
	<path class="st0" d="M154.7,292.7c0,7.9-14.3,59.6-14.3,59.6s-14.3-51.7-14.3-59.6c0-7.9,6.4-14.3,14.3-14.3
		C148.3,278.3,154.7,284.8,154.7,292.7z"/>
	
		<linearGradient id="SVGID_00000114781540395803498650000012153453516128606367_" gradientUnits="userSpaceOnUse" x1="104.2784" y1="292.2195" x2="104.2784" y2="358.3616">
		<stop  offset="0" style="stop-color:#F2D200"/>
		<stop  offset="1" style="stop-color:#F27900"/>
	</linearGradient>
	<path style="fill:url(#SVGID_00000114781540395803498650000012153453516128606367_);" d="M118.6,292.7c0,7.9-14.3,59.6-14.3,59.6
		s-14.3-51.7-14.3-59.6c0-7.9,6.4-14.3,14.3-14.3S118.6,284.8,118.6,292.7z"/>
	
		<linearGradient id="SVGID_00000088834548237382282820000012866518745771236792_" gradientUnits="userSpaceOnUse" x1="104.2784" y1="288.7745" x2="104.2784" y2="330.7617">
		<stop  offset="0" style="stop-color:#F2D200"/>
		<stop  offset="1" style="stop-color:#F27900"/>
	</linearGradient>
	<path style="fill:url(#SVGID_00000088834548237382282820000012866518745771236792_);" d="M115.2,289.1c0,5-11,37.8-11,37.8
		s-11-32.8-11-37.8c0-5,4.9-9.1,11-9.1C110.3,280,115.2,284,115.2,289.1z"/>
	
		<linearGradient id="SVGID_00000025441199427210423540000016246687689982916540_" gradientUnits="userSpaceOnUse" x1="140.3883" y1="288.7745" x2="140.3883" y2="330.7617">
		<stop  offset="0" style="stop-color:#F2D200"/>
		<stop  offset="1" style="stop-color:#F27900"/>
	</linearGradient>
	<path style="fill:url(#SVGID_00000025441199427210423540000016246687689982916540_);" d="M151.3,289.1c0,5-11,37.8-11,37.8
		s-11-32.8-11-37.8c0-5,4.9-9.1,11-9.1C146.4,280,151.3,284,151.3,289.1z"/>
	
		<linearGradient id="SVGID_00000038376707914971909760000008675028054993900974_" gradientUnits="userSpaceOnUse" x1="104.2784" y1="285.2566" x2="104.2784" y2="310.4835">
		<stop  offset="0" style="stop-color:#F2D200"/>
		<stop  offset="1" style="stop-color:#F27900"/>
	</linearGradient>
	<path style="fill:url(#SVGID_00000038376707914971909760000008675028054993900974_);" d="M110.9,285.4c0,3-6.6,22.7-6.6,22.7
		s-6.6-19.7-6.6-22.7c0-3,2.9-5.5,6.6-5.5C107.9,280,110.9,282.4,110.9,285.4z"/>
	
		<linearGradient id="SVGID_00000036950304578280832480000015213846502473748883_" gradientUnits="userSpaceOnUse" x1="140.3883" y1="285.2566" x2="140.3883" y2="310.4835">
		<stop  offset="0" style="stop-color:#F2D200"/>
		<stop  offset="1" style="stop-color:#F27900"/>
	</linearGradient>
	<path style="fill:url(#SVGID_00000036950304578280832480000015213846502473748883_);" d="M147,285.4c0,3-6.6,22.7-6.6,22.7
		s-6.6-19.7-6.6-22.7c0-3,2.9-5.5,6.6-5.5C144,280,147,282.4,147,285.4z"/>
	
		<linearGradient id="SVGID_00000074417273809902473850000011323284429657362846_" gradientUnits="userSpaceOnUse" x1="157.4351" y1="219.6535" x2="185.4342" y2="219.6535">
		<stop  offset="0" style="stop-color:#584D94"/>
		<stop  offset="1" style="stop-color:#312B52"/>
	</linearGradient>
	
		<rect x="157.4" y="218.9" style="fill:url(#SVGID_00000074417273809902473850000011323284429657362846_);" width="28" height="1.5"/>
	
		<linearGradient id="SVGID_00000078727719478931053860000008139886551843026314_" gradientUnits="userSpaceOnUse" x1="59.233" y1="219.6535" x2="87.2315" y2="219.6535">
		<stop  offset="0" style="stop-color:#584D94"/>
		<stop  offset="1" style="stop-color:#312B52"/>
	</linearGradient>
	
		<rect x="59.2" y="218.9" style="fill:url(#SVGID_00000078727719478931053860000008139886551843026314_);" width="28" height="1.5"/>
	
		<linearGradient id="SVGID_00000051352171622808781770000014741515228635013797_" gradientUnits="userSpaceOnUse" x1="62.7054" y1="177.5928" x2="114.4557" y2="188.0928">
		<stop  offset="0" style="stop-color:#FFFFFF"/>
		<stop  offset="1" style="stop-color:#BEB7E8"/>
	</linearGradient>
	<path style="fill:url(#SVGID_00000051352171622808781770000014741515228635013797_);" d="M100.9,97c0,0-2.8,1.5-4.4,13.9
		c-1.7,12.4-2.5,55.2-12.7,71.6c-10.3,16.4-36.5,37.7-40.9,45.7c-4.4,8-6.7,29.1-6.6,30c0.2,0.9,34.7,10.3,37.2,10.3
		c4.1,0,20.9,0,29.1,0V97H100.9z"/>
	<path class="st9" d="M37.6,247h64.9v1.3H80.2v20.1c-0.4,0-0.7,0-1.1,0v-20.1h-19v17c-0.4-0.1-0.7-0.2-1.1-0.3v-16.7H37.4
		C37.5,247.9,37.5,247.5,37.6,247z"/>
	
		<linearGradient id="SVGID_00000172441950377275392440000014225855809172496037_" gradientUnits="userSpaceOnUse" x1="56.657" y1="193.4218" x2="64.2291" y2="250.1037">
		<stop  offset="0" style="stop-color:#584D94"/>
		<stop  offset="1" style="stop-color:#312B52"/>
	</linearGradient>
	<path style="fill:url(#SVGID_00000172441950377275392440000014225855809172496037_);" d="M42,228.1c4.1-7.3,27.3-26.6,38.8-41.4
		h4.9c-9.8,16.4-34.4,37.5-38.6,45.4c-3.4,6.5-5.5,21.9-6.1,27.7c-2.9-0.9-5.6-1.5-5.6-1.8C35.2,257.2,37.6,236.1,42,228.1z"/>
	
		<linearGradient id="SVGID_00000155862464638759201160000009593652474652752561_" gradientUnits="userSpaceOnUse" x1="62.7105" y1="210.5745" x2="90.5957" y2="239.1031">
		<stop  offset="0" style="stop-color:#4F9BFC"/>
		<stop  offset="1" style="stop-color:#363DAD"/>
	</linearGradient>
	<path style="fill:url(#SVGID_00000155862464638759201160000009593652474652752561_);" d="M90.8,227.3c0,6.5-5.2,11.7-11.7,11.7
		c-6.5,0-11.7-5.2-11.7-11.7c0-6.5,5.2-11.7,11.7-11.7C85.5,215.6,90.8,220.8,90.8,227.3z"/>
	
		<linearGradient id="SVGID_00000135667502385981311060000012301169135442717839_" gradientUnits="userSpaceOnUse" x1="68.9825" y1="217.6226" x2="86.2277" y2="235.2658">
		<stop  offset="0" style="stop-color:#F2EA00"/>
		<stop  offset="1" style="stop-color:#F29500"/>
	</linearGradient>
	<polygon style="fill:url(#SVGID_00000135667502385981311060000012301169135442717839_);" points="79.1,219.7 81.2,224.6 
		86.4,225.1 82.4,228.5 83.6,233.7 79.1,231 74.5,233.7 75.7,228.5 71.7,225.1 77,224.6 	"/>
	
		<linearGradient id="SVGID_00000023981138010527905530000012694495116707020983_" gradientUnits="userSpaceOnUse" x1="224.5141" y1="202.8074" x2="140.2851" y2="182.0385">
		<stop  offset="0" style="stop-color:#FFFFFF"/>
		<stop  offset="1" style="stop-color:#BEB7E8"/>
	</linearGradient>
	<path style="fill:url(#SVGID_00000023981138010527905530000012694495116707020983_);" d="M143.8,97c0,0,2.8,1.5,4.4,13.9
		c1.7,12.4,2.5,55.2,12.7,71.6c10.3,16.4,36.5,37.7,40.9,45.7c4.4,8,6.7,29.1,6.6,30c-0.2,0.9-34.7,10.3-37.2,10.3
		c-4.1,0-20.9,0-29.1,0V97H143.8z"/>
	<path class="st9" d="M207.1,247h-64.9v1.3h22.3v20.1c0.4,0,0.7,0,1.1,0v-20.1h19v17c0.4-0.1,0.7-0.2,1.1-0.3v-16.7h21.6
		C207.2,247.9,207.1,247.5,207.1,247z"/>
	
		<linearGradient id="SVGID_00000088823515100203272360000000112401646528251295_" gradientUnits="userSpaceOnUse" x1="166.4777" y1="188.0306" x2="211.2607" y2="256.3951">
		<stop  offset="0" style="stop-color:#584D94"/>
		<stop  offset="1" style="stop-color:#312B52"/>
	</linearGradient>
	<path style="fill:url(#SVGID_00000088823515100203272360000000112401646528251295_);" d="M202.6,228.1
		c-4.1-7.3-27.4-26.6-38.8-41.4H159c9.8,16.4,34.4,37.5,38.6,45.4c3.4,6.5,5.5,21.9,6.1,27.7c2.9-0.9,5.6-1.5,5.6-1.8
		C209.4,257.2,207.1,236.1,202.6,228.1z"/>
	
		<linearGradient id="SVGID_00000150100510796630563440000016302004848889378198_" gradientUnits="userSpaceOnUse" x1="149.248" y1="210.5743" x2="177.1335" y2="239.1032">
		<stop  offset="0" style="stop-color:#4F9BFC"/>
		<stop  offset="1" style="stop-color:#363DAD"/>
	</linearGradient>
	<path style="fill:url(#SVGID_00000150100510796630563440000016302004848889378198_);" d="M177.3,227.3c0,6.5-5.2,11.7-11.7,11.7
		c-6.5,0-11.7-5.2-11.7-11.7c0-6.5,5.2-11.7,11.7-11.7C172.1,215.6,177.3,220.8,177.3,227.3z"/>
	
		<linearGradient id="SVGID_00000172407054442935450730000014162783334249997204_" gradientUnits="userSpaceOnUse" x1="155.5201" y1="217.6229" x2="172.7649" y2="235.2656">
		<stop  offset="0" style="stop-color:#F2EA00"/>
		<stop  offset="1" style="stop-color:#F29500"/>
	</linearGradient>
	<polygon style="fill:url(#SVGID_00000172407054442935450730000014162783334249997204_);" points="165.6,219.7 167.7,224.6 
		172.9,225.1 169,228.5 170.1,233.7 165.6,231 161.1,233.7 162.2,228.5 158.3,225.1 163.5,224.6 	"/>
	
		<linearGradient id="SVGID_00000057127206701903571780000005865881477245185669_" gradientUnits="userSpaceOnUse" x1="213.6006" y1="200.1164" x2="138.3596" y2="181.5637">
		<stop  offset="0" style="stop-color:#FFFFFF"/>
		<stop  offset="1" style="stop-color:#BEB7E8"/>
	</linearGradient>
	<path style="fill:url(#SVGID_00000057127206701903571780000005865881477245185669_);" d="M167.1,190.8c-2.4-2.9-4.5-5.7-6.1-8.3
		c-10.3-16.4-11-59.1-12.7-71.6c-1.7-12.4-4.4-13.9-4.4-13.9h-1.6v171.5c8.2,0,24.9,0,29.1,0c1.1,0,17.2-4.2,24.9-6.3L167.1,190.8z"
		/>
	
		<linearGradient id="SVGID_00000000184454399361722800000007503280170400011169_" gradientUnits="userSpaceOnUse" x1="113.836" y1="87.3826" x2="154.3999" y2="243.7932">
		<stop  offset="0" style="stop-color:#FFFFFF"/>
		<stop  offset="1" style="stop-color:#BEB7E8"/>
	</linearGradient>
	<path style="fill:url(#SVGID_00000000184454399361722800000007503280170400011169_);" d="M167.8,268.4l-12.9-25
		c-0.5-10.3-6.4-14.9-7.9-15.9V104.2c-1.5-6.3-3.2-7.2-3.2-7.2h-1.6v130.3h-10.7v38.8h10.7v2.3C148.8,268.4,161.2,268.4,167.8,268.4
		z"/>
	
		<linearGradient id="SVGID_00000161613826298094011110000001480020122354321837_" gradientUnits="userSpaceOnUse" x1="67.9067" y1="146.1458" x2="223.4588" y2="190.7129">
		<stop  offset="0" style="stop-color:#FFFFFF"/>
		<stop  offset="1" style="stop-color:#BEB7E8"/>
	</linearGradient>
	<path style="fill:url(#SVGID_00000161613826298094011110000001480020122354321837_);" d="M136.4,56.6h-4.6l-2.5,2.5h-13.8l-2.5-2.5
		h-4.6c-3.8,11.5-7.5,26.5-7.5,46.7c0,8.8,0,154.9,0,158.1c0,3.3,3.5,4.7,6.1,4.7c2.7,0,15.4,0,15.4,0s12.8,0,15.4,0
		c2.7,0,6.1-1.4,6.1-4.7c0-3.3,0-149.3,0-158.1C143.9,83.1,140.2,68.1,136.4,56.6z"/>
	
		<linearGradient id="SVGID_00000072966076814677174240000017953248132221795258_" gradientUnits="userSpaceOnUse" x1="99.7364" y1="152.2399" x2="143.237" y2="152.2399">
		<stop  offset="0" style="stop-color:#FFFFFF"/>
		<stop  offset="1" style="stop-color:#BEB7E8"/>
	</linearGradient>
	<path style="fill:url(#SVGID_00000072966076814677174240000017953248132221795258_);" d="M100.8,110.5c0,31.2,0,148,0,150.9
		c0,3.3,3.5,4.7,6.1,4.7c2.7,0,15.4,0,15.4,0s12.8,0,15.4,0c2.7,0,6.1-1.4,6.1-4.7c0-3.3,0-149.3,0-158.1c0-20.2-3.7-35.2-7.5-46.7
		c-0.2-0.5-0.3-1-0.5-1.4c-2.6-7.5-5.2-13.9-7.1-16.9C135.9,58.4,131.1,96.1,100.8,110.5z"/>
	<path class="st21" d="M100.8,110.5c0,0,0.1,1.8,0.2,5c0.1,3.2,0.3,7.8,0.3,13.2c0.1,5.5,0.2,11.9,0.3,18.7
		c0.1,6.8,0.1,14.1,0.1,21.4c0,7.3-0.1,14.6-0.1,21.4c-0.1,6.8-0.2,13.2-0.3,18.7c0,2.7-0.1,5.2-0.2,7.5c-0.1,2.2-0.1,4.2-0.1,5.8
		c-0.1,3.2-0.2,5-0.2,5s-0.1-1.8-0.2-5c0-1.6-0.1-3.5-0.1-5.8c0-2.2-0.1-4.7-0.2-7.5c-0.1-5.5-0.2-11.9-0.3-18.7
		c-0.1-6.8-0.1-14.1-0.1-21.4c0-7.3,0-14.6,0.1-21.4c0-6.8,0.2-13.2,0.3-18.7c0.1-5.5,0.3-10,0.3-13.2
		C100.7,112.3,100.8,110.5,100.8,110.5z"/>
	<path class="st21" d="M121.7,130.2c0,0,0,1.2,0.1,3.3c0,2.1,0.1,5,0.1,8.6c0,3.6,0.1,7.7,0.1,12.2c0,4.4,0,9.2,0,13.9
		c0,4.7,0,9.5,0,13.9c0,4.4-0.1,8.6-0.1,12.2c0,1.8,0,3.4,0,4.9c0,1.4,0,2.7,0,3.7c0,2.1,0,3.3,0,3.3s0-1.2,0-3.3c0-1,0-2.3,0-3.7
		c0-1.4,0-3.1,0-4.9c0-3.6,0-7.7-0.1-12.2c0-4.4,0-9.2,0-13.9c0-4.7,0-9.5,0-13.9c0-4.4,0.1-8.6,0.1-12.2c0-3.6,0.1-6.5,0.1-8.6
		C121.6,131.4,121.7,130.2,121.7,130.2z"/>
	
		<linearGradient id="SVGID_00000110455095286604161790000002573818743890193340_" gradientUnits="userSpaceOnUse" x1="144.2891" y1="254.5048" x2="111.9659" y2="246.5346">
		<stop  offset="0" style="stop-color:#FFFFFF"/>
		<stop  offset="1" style="stop-color:#BEB7E8"/>
	</linearGradient>
	<path style="fill:url(#SVGID_00000110455095286604161790000002573818743890193340_);" d="M109.4,266.1c4.6,0,13,0,13,0
		s12.8,0,15.4,0c0.9,0,1.9-0.2,2.9-0.5L116,227.3l-6.7,0V266.1z"/>
	
		<linearGradient id="SVGID_00000041978333623876785240000001172848090231049141_" gradientUnits="userSpaceOnUse" x1="108.2667" y1="47.1232" x2="136.399" y2="47.1232">
		<stop  offset="0" style="stop-color:#584D94"/>
		<stop  offset="1" style="stop-color:#312B52"/>
	</linearGradient>
	<path style="fill:url(#SVGID_00000041978333623876785240000001172848090231049141_);" d="M135.9,55.2c-2.6-7.5-5.2-13.9-7.1-16.9
		c-1.3-2.1-3.6-3.3-6.5-3.3s-5.2,1.2-6.5,3.3c-1.9,3-4.5,9.4-7.1,16.9c-0.2,0.5-0.3,1-0.5,1.4h4.6l2.5,2.5h13.8l2.5-2.5h4.6
		C136.2,56.2,136.1,55.7,135.9,55.2z"/>
	<path class="st24" d="M119.6,59.2h9.6l2.5-2.5h4.6c-0.2-0.5-0.3-1-0.5-1.4c-2.6-7.5-5.2-13.9-7.1-16.9
		C128.8,38.4,130.1,50.9,119.6,59.2z"/>
	
		<linearGradient id="SVGID_00000112614404593506011460000003413515849967592089_" gradientUnits="userSpaceOnUse" x1="112.36" y1="70.0707" x2="133.2354" y2="89.2801">
		<stop  offset="0" style="stop-color:#584D94"/>
		<stop  offset="1" style="stop-color:#312B52"/>
	</linearGradient>
	<path style="fill:url(#SVGID_00000112614404593506011460000003413515849967592089_);" d="M133.1,73.9c-1.7-1.5-7.7-5.7-10.8-5.7
		c-3,0-9,4.2-10.8,5.7c-1.7,1.5-3,2.9-3,4.1c0,1.2,0,3,0,3.7c0,0.7,0.9,0.8,1.6,0.4c0.7-0.5,2.6-1.7,2.9-2.1c0.3-0.4,0.3-1,0.3-1.6
		c0-1.3,0.2-1.5,0.6-1.8c0.3-0.3,2-1.4,2.2-1.5c0.4-0.3,0.7,0,0.7,0.4c0,0.5,0,1.1,0,1.4c0,0.3,0.2,1,0.9,1c0.7,0,4.6,0,4.6,0
		s3.9,0,4.6,0c0.7,0,0.9-0.7,0.9-1c0-0.3,0-1,0-1.4c0-0.5,0.2-0.7,0.7-0.4c0.2,0.1,1.9,1.2,2.2,1.5c0.3,0.3,0.6,0.5,0.6,1.8
		c0,0.6,0.1,1.2,0.3,1.6c0.3,0.4,2.2,1.6,2.9,2.1c0.7,0.5,1.6,0.3,1.6-0.4c0-0.7,0-2.5,0-3.7C136.1,76.7,134.8,75.4,133.1,73.9z"/>
	<path class="st26" d="M133.1,73.9c-1.7-1.5-7.7-5.7-10.8-5.7c-3,0-9,4.2-10.8,5.7c-1.7,1.5-3,2.9-3,4.1c0,0.3,0,0.6,0,0.9
		c0-1.2,1.3-2.6,3-4.1c1.7-1.5,7.7-5.7,10.8-5.7c3,0,9,4.2,10.8,5.7c1.7,1.5,3,2.9,3,4.1c0-0.3,0-0.6,0-0.9
		C136.1,76.7,134.8,75.4,133.1,73.9z"/>
	
		<linearGradient id="SVGID_00000152246695878232691070000010795257870470903980_" gradientUnits="userSpaceOnUse" x1="119.1661" y1="86.2331" x2="119.1661" y2="92.4614">
		<stop  offset="0" style="stop-color:#584D94"/>
		<stop  offset="1" style="stop-color:#312B52"/>
	</linearGradient>
	<path style="fill:url(#SVGID_00000152246695878232691070000010795257870470903980_);" d="M121.4,90.5c0,0.6-0.5,1.1-1.1,1.1h-2.1
		c-0.6,0-1.1-0.5-1.1-1.1v-2.1c0-0.6,0.5-1.1,1.1-1.1h2.1c0.6,0,1.1,0.5,1.1,1.1V90.5z"/>
	
		<linearGradient id="SVGID_00000090278761332932606610000005835547553357954733_" gradientUnits="userSpaceOnUse" x1="125.5001" y1="86.2331" x2="125.5001" y2="92.4614">
		<stop  offset="0" style="stop-color:#584D94"/>
		<stop  offset="1" style="stop-color:#312B52"/>
	</linearGradient>
	<path style="fill:url(#SVGID_00000090278761332932606610000005835547553357954733_);" d="M127.7,90.5c0,0.6-0.5,1.1-1.1,1.1h-2.1
		c-0.6,0-1.1-0.5-1.1-1.1v-2.1c0-0.6,0.5-1.1,1.1-1.1h2.1c0.6,0,1.1,0.5,1.1,1.1V90.5z"/>
	
		<linearGradient id="SVGID_00000162335913372306587020000008210808667841125054_" gradientUnits="userSpaceOnUse" x1="140.3557" y1="287.9222" x2="140.4638" y2="261.7451">
		<stop  offset="0" style="stop-color:#584D94"/>
		<stop  offset="1" style="stop-color:#312B52"/>
	</linearGradient>
	<path style="fill:url(#SVGID_00000162335913372306587020000008210808667841125054_);" d="M154.2,279.3c0.5,2.3-1.1,4.2-3.5,4.2H130
		c-2.4,0-3.9-1.9-3.5-4.2l4.3-20.6c0.5-2.3,2.8-4.2,5.2-4.2h8.7c2.4,0,4.7,1.9,5.2,4.2L154.2,279.3z"/>
	
		<linearGradient id="SVGID_00000137113703588704205350000000763685504914776251_" gradientUnits="userSpaceOnUse" x1="140.9498" y1="258.3549" x2="140.9498" y2="277.1778">
		<stop  offset="0" style="stop-color:#FFFFFF"/>
		<stop  offset="1" style="stop-color:#BEB7E8"/>
	</linearGradient>
	<path style="fill:url(#SVGID_00000137113703588704205350000000763685504914776251_);" d="M136.1,254.4c-2.4,0-4.7,1.9-5.2,4.2
		l-2.4,11.5l0,0l25,5.3l-3.5-16.8c-0.5-2.3-2.8-4.2-5.2-4.2H136.1z"/>
	
		<linearGradient id="SVGID_00000037669374593229457650000009418355585343102618_" gradientUnits="userSpaceOnUse" x1="104.2462" y1="287.9222" x2="104.3544" y2="261.7451">
		<stop  offset="0" style="stop-color:#584D94"/>
		<stop  offset="1" style="stop-color:#312B52"/>
	</linearGradient>
	<path style="fill:url(#SVGID_00000037669374593229457650000009418355585343102618_);" d="M118.1,279.3c0.5,2.3-1.1,4.2-3.5,4.2
		H93.9c-2.4,0-3.9-1.9-3.5-4.2l4.3-20.6c0.5-2.3,2.8-4.2,5.2-4.2h8.7c2.4,0,4.7,1.9,5.2,4.2L118.1,279.3z"/>
	
		<linearGradient id="SVGID_00000083091323645682206670000012981668315925693842_" gradientUnits="userSpaceOnUse" x1="104.8236" y1="258.3549" x2="104.8236" y2="277.1778">
		<stop  offset="0" style="stop-color:#FFFFFF"/>
		<stop  offset="1" style="stop-color:#BEB7E8"/>
	</linearGradient>
	<path style="fill:url(#SVGID_00000083091323645682206670000012981668315925693842_);" d="M99.9,254.4c-2.4,0-4.7,1.9-5.2,4.2
		l-2.4,11.5l0,0l25,5.3l-3.5-16.8c-0.5-2.3-2.8-4.2-5.2-4.2H99.9z"/>
	
		<linearGradient id="SVGID_00000097478537664505312960000007416738840903015600_" gradientUnits="userSpaceOnUse" x1="92.1114" y1="246.714" x2="117.6118" y2="246.714">
		<stop  offset="0" style="stop-color:#FCFCFE"/>
		<stop  offset="1" style="stop-color:#BEB7E8"/>
	</linearGradient>
	<path style="fill:url(#SVGID_00000097478537664505312960000007416738840903015600_);" d="M100.8,227.3c0,0-8.3,4.7-8.3,17.6
		c0,12.9,0,21.2,0,21.2H116v-38.8H100.8z"/>
	
		<linearGradient id="SVGID_00000124870339335354426630000008764014901276588698_" gradientUnits="userSpaceOnUse" x1="158.3204" y1="246.714" x2="128.9864" y2="246.714">
		<stop  offset="0" style="stop-color:#FFFFFF"/>
		<stop  offset="1" style="stop-color:#BEB7E8"/>
	</linearGradient>
	<path style="fill:url(#SVGID_00000124870339335354426630000008764014901276588698_);" d="M143.9,227.3c0,0,8.3,4.7,8.3,17.6
		c0,12.9,0,21.2,0,21.2h-23.5v-38.8H143.9z"/>
	<rect x="100.8" y="103.3" class="st35" width="43.1" height="0.9"/>
	<rect x="121.9" y="103.3" class="st35" width="0.9" height="117.3"/>
	<rect x="100.8" y="142.1" class="st35" width="43.1" height="0.9"/>
	<rect x="100.8" y="180.9" class="st35" width="43.1" height="0.9"/>
	<rect x="100.8" y="219.7" class="st35" width="43.1" height="0.9"/>
	<path class="st21" d="M110.1,68.1c-0.2,0-0.3,0-0.5,0c-1.4-0.3-2.2-1.6-2-2.9c0.7-3.6,1.7-7.2,3-10.8c0.5-1.3,1.9-2,3.2-1.5
		c1.3,0.5,2,1.9,1.5,3.2c-1.2,3.3-2.2,6.7-2.8,10.1C112.3,67.3,111.2,68.1,110.1,68.1z M117.8,50.3L118,50c0.6-1.2,0.2-2.7-1.1-3.4
		c-1.2-0.6-2.7-0.2-3.4,1.1l-0.2,0.4c-0.6,1.2-0.1,2.7,1.1,3.4c0.4,0.2,0.7,0.3,1.1,0.3C116.5,51.7,117.3,51.2,117.8,50.3z"/>
	<path class="st36" d="M140.4,190.2c0,1.6-1.3,2.8-2.8,2.8l0,0c-1.6,0-2.8-1.3-2.8-2.8v-16.7c0-1.6,1.3-2.8,2.8-2.8l0,0
		c1.6,0,2.8,1.3,2.8,2.8V190.2z M140.4,163.2c0-1.6-1.3-2.8-2.8-2.8l0,0c-1.6,0-2.8,1.3-2.8,2.8v2.5c0,1.6,1.3,2.8,2.8,2.8l0,0
		c1.6,0,2.8-1.3,2.8-2.8V163.2z"/>
	<path class="st36" d="M55.2,243.8c-0.5,0-1-0.1-1.5-0.3c-1.7-0.8-2.5-2.9-1.7-4.7c2.9-6.2,9.2-12.7,16.6-20.2l2.3-2.3
		c1.3-1.4,3.6-1.4,4.9-0.1c1.4,1.3,1.4,3.6,0.1,4.9l-2.3,2.3c-6.6,6.8-12.9,13.2-15.3,18.3C57.8,243,56.5,243.8,55.2,243.8z
		 M83.2,213.4c0.4-0.5,0.8-0.9,1.2-1.4c1.3-1.4,1.1-3.7-0.3-4.9s-3.7-1.1-4.9,0.3c-0.4,0.4-0.8,0.9-1.2,1.3
		c-1.3,1.4-1.2,3.6,0.3,4.9c0.7,0.6,1.5,0.9,2.3,0.9C81.5,214.5,82.5,214.1,83.2,213.4z"/>
	<path class="st36" d="M182.2,236.9c-2.6-5-9.1-11.2-15.9-17.7l-2.4-2.3c-1.4-1.3-1.4-3.6-0.1-4.9c1.3-1.4,3.6-1.4,4.9-0.1l2.3,2.2
		c7.6,7.3,14.2,13.5,17.3,19.6c0.9,1.7,0.2,3.8-1.5,4.7c-0.5,0.2-1,0.4-1.5,0.4C184.1,238.9,182.8,238.2,182.2,236.9z M159,210.5
		c0.8,0,1.7-0.4,2.3-1c1.4-1.3,1.4-3.6,0.1-5c-0.4-0.4-0.8-0.8-1.2-1.3c-1.3-1.4-3.5-1.5-4.9-0.1c-1.4,1.3-1.5,3.5-0.1,4.9
		c0.4,0.4,0.8,0.9,1.3,1.3C157,210.2,158,210.6,159,210.5z"/>
</g>
</svg>
